<svg id="icons" enable-background="new 0 0 64 64" height="512" viewBox="0 0 64 64" width="512" xmlns="http://www.w3.org/2000/svg"><path d="m32 59c16.02 0 29-12.99 29-29v4c0 16.01-12.98 29-29 29-16.01 0-29-12.99-29-29v-4c0 16.01 12.99 29 29 29z" fill="#844747"/><path d="m61 30c0 16.01-12.98 29-29 29-16.01 0-29-12.99-29-29 0-16.02 12.99-29 29-29 16.02 0 29 12.98 29 29zm-3.5 0c0-14.08-11.41-25.5-25.5-25.5-14.08 0-25.5 11.42-25.5 25.5s11.42 25.5 25.5 25.5c14.09 0 25.5-11.42 25.5-25.5z" fill="#965353"/><path d="m32 4.5c14.09 0 25.5 11.42 25.5 25.5s-11.41 25.5-25.5 25.5c-14.08 0-25.5-11.42-25.5-25.5s11.42-25.5 25.5-25.5z" fill="#844747"/><path d="m32.031 51.539c-.829 0-1.505-.672-1.505-1.5s.666-1.5 1.494-1.5h.011c.828 0 1.5.672 1.5 1.5s-.672 1.5-1.5 1.5z" fill="#a0d468"/><path d="m32.031 45.537c-.829 0-1.505-.672-1.505-1.5s.666-1.5 1.494-1.5h.011c.828 0 1.5.672 1.5 1.5s-.672 1.5-1.5 1.5z" fill="#a0d468"/><path d="m36.029 40.537c-.829 0-1.505-.672-1.505-1.5s.666-1.5 1.494-1.5h.011c.828 0 1.5.672 1.5 1.5s-.672 1.5-1.5 1.5z" fill="#773e3e"/><path d="m38.028 37.537c-.829 0-1.505-.672-1.505-1.5s.666-1.5 1.494-1.5h.011c.828 0 1.5.672 1.5 1.5s-.672 1.5-1.5 1.5z" fill="#773e3e"/><path d="m40.027 34.537c-.829 0-1.505-.672-1.505-1.5s.666-1.5 1.494-1.5h.011c.828 0 1.5.672 1.5 1.5s-.672 1.5-1.5 1.5z" fill="#773e3e"/><path d="m42.026 31.537c-.829 0-1.505-.672-1.505-1.5s.666-1.5 1.494-1.5h.011c.828 0 1.5.672 1.5 1.5s-.672 1.5-1.5 1.5z" fill="#773e3e"/><path d="m46.027 27.537c-.829 0-1.505-.672-1.505-1.5s.666-1.5 1.494-1.5h.011c.828 0 1.5.672 1.5 1.5s-.672 1.5-1.5 1.5z" fill="#ac92ec"/><path d="m48.026 24.537c-.829 0-1.505-.672-1.505-1.5s.666-1.5 1.494-1.5h.011c.828 0 1.5.672 1.5 1.5s-.672 1.5-1.5 1.5z" fill="#ac92ec"/><path d="m34.03 48.539c-.829 0-1.505-.672-1.505-1.5s.666-1.5 1.494-1.5h.011c.828 0 1.5.672 1.5 1.5s-.672 1.5-1.5 1.5z" fill="#a0d468"/><path d="m36.029 45.539c-.829 0-1.505-.672-1.505-1.5s.666-1.5 1.494-1.5h.011c.828 0 1.5.672 1.5 1.5s-.672 1.5-1.5 1.5z" fill="#a0d468"/><g fill="#5d9cec"><path d="m42.029 40.541c-.829 0-1.505-.672-1.505-1.5s.666-1.5 1.494-1.5h.011c.828 0 1.5.672 1.5 1.5s-.672 1.5-1.5 1.5z"/><path d="m44.028 37.541c-.829 0-1.505-.672-1.505-1.5s.666-1.5 1.494-1.5h.011c.828 0 1.5.672 1.5 1.5s-.672 1.5-1.5 1.5z"/><path d="m46.027 34.541c-.829 0-1.505-.672-1.505-1.5s.666-1.5 1.494-1.5h.011c.828 0 1.5.672 1.5 1.5s-.672 1.5-1.5 1.5z"/><path d="m48.029 37.543c-.829 0-1.505-.672-1.505-1.5s.666-1.5 1.494-1.5h.011c.828 0 1.5.672 1.5 1.5s-.672 1.5-1.5 1.5z"/><path d="m50.031 40.547c-.829 0-1.505-.672-1.505-1.5s.666-1.5 1.494-1.5h.011c.828 0 1.5.672 1.5 1.5s-.672 1.5-1.5 1.5z"/><path d="m46.027 40.547c-.829 0-1.505-.672-1.505-1.5s.666-1.5 1.494-1.5h.011c.828 0 1.5.672 1.5 1.5s-.672 1.5-1.5 1.5z"/></g><path d="m32.031 40.541c-.829 0-1.505-.672-1.505-1.5s.666-1.5 1.494-1.5h.011c.828 0 1.5.672 1.5 1.5s-.672 1.5-1.5 1.5z" fill="#773e3e"/><path d="m32.031 34.537c-.829 0-1.505-.672-1.505-1.5s.666-1.5 1.494-1.5h.011c.828 0 1.5.672 1.5 1.5s-.672 1.5-1.5 1.5z" fill="#773e3e"/><path d="m34.03 31.537c-.829 0-1.505-.672-1.505-1.5s.666-1.5 1.494-1.5h.011c.828 0 1.5.672 1.5 1.5s-.672 1.5-1.5 1.5z" fill="#773e3e"/><path d="m36.029 28.537c-.829 0-1.505-.672-1.505-1.5s.666-1.5 1.494-1.5h.011c.828 0 1.5.672 1.5 1.5s-.672 1.5-1.5 1.5z" fill="#773e3e"/><path d="m38.028 25.537c-.829 0-1.505-.672-1.505-1.5s.666-1.5 1.494-1.5h.011c.828 0 1.5.672 1.5 1.5s-.672 1.5-1.5 1.5z" fill="#773e3e"/><path d="m42.029 21.537c-.829 0-1.505-.672-1.505-1.5s.666-1.5 1.494-1.5h.011c.828 0 1.5.672 1.5 1.5s-.672 1.5-1.5 1.5z" fill="#ac92ec"/><path d="m34.03 37.541c-.829 0-1.505-.672-1.505-1.5s.666-1.5 1.494-1.5h.011c.828 0 1.5.672 1.5 1.5s-.672 1.5-1.5 1.5z" fill="#773e3e"/><path d="m36.029 34.541c-.829 0-1.505-.672-1.505-1.5s.666-1.5 1.494-1.5h.011c.828 0 1.5.672 1.5 1.5s-.672 1.5-1.5 1.5z" fill="#773e3e"/><path d="m38.028 31.541c-.829 0-1.505-.672-1.505-1.5s.666-1.5 1.494-1.5h.011c.828 0 1.5.672 1.5 1.5s-.672 1.5-1.5 1.5z" fill="#773e3e"/><path d="m40.027 28.541c-.829 0-1.505-.672-1.505-1.5s.666-1.5 1.494-1.5h.011c.828 0 1.5.672 1.5 1.5s-.672 1.5-1.5 1.5z" fill="#773e3e"/><path d="m44.028 24.539c-.829 0-1.505-.672-1.505-1.5s.666-1.5 1.494-1.5h.011c.828 0 1.5.672 1.5 1.5s-.672 1.5-1.5 1.5z" fill="#ac92ec"/><path d="m46.027 21.539c-.829 0-1.505-.672-1.505-1.5s.666-1.5 1.494-1.5h.011c.828 0 1.5.672 1.5 1.5s-.672 1.5-1.5 1.5z" fill="#ac92ec"/><path d="m50.031 21.539c-.829 0-1.505-.672-1.505-1.5s.666-1.5 1.494-1.5h.011c.828 0 1.5.672 1.5 1.5s-.672 1.5-1.5 1.5z" fill="#ac92ec"/><path d="m18 28.537c-.829 0-1.505-.672-1.505-1.5s.666-1.5 1.494-1.5h.011c.828 0 1.5.672 1.5 1.5s-.672 1.5-1.5 1.5z" fill="#ffce54"/><path d="m16.001 25.537c-.829 0-1.505-.672-1.505-1.5s.666-1.5 1.494-1.5h.011c.828 0 1.5.672 1.5 1.5s-.672 1.5-1.5 1.5z" fill="#ffce54"/><path d="m18 34.541c-.829 0-1.505-.672-1.505-1.5s.666-1.5 1.494-1.5h.011c.828 0 1.5.672 1.5 1.5s-.672 1.5-1.5 1.5z" fill="#a0d468"/><path d="m15.998 37.543c-.829 0-1.505-.672-1.505-1.5s.666-1.5 1.494-1.5h.011c.828 0 1.5.672 1.5 1.5s-.672 1.5-1.5 1.5z" fill="#a0d468"/><path d="m13.996 40.547c-.829 0-1.505-.672-1.505-1.5s.666-1.5 1.494-1.5h.011c.828 0 1.5.672 1.5 1.5s-.672 1.5-1.5 1.5z" fill="#a0d468"/><path d="m18 40.547c-.829 0-1.505-.672-1.505-1.5s.666-1.5 1.494-1.5h.011c.828 0 1.5.672 1.5 1.5s-.672 1.5-1.5 1.5z" fill="#a0d468"/><path d="m18 22.541c-.829 0-1.505-.672-1.505-1.5s.666-1.5 1.494-1.5h.011c.828 0 1.5.672 1.5 1.5s-.672 1.5-1.5 1.5z" fill="#ffce54"/><path d="m13.996 22.541c-.829 0-1.505-.672-1.505-1.5s.666-1.5 1.494-1.5h.011c.828 0 1.5.672 1.5 1.5s-.672 1.5-1.5 1.5z" fill="#ffce54"/><path d="m32.031 28.541c-.829 0-1.505-.672-1.505-1.5s.666-1.5 1.494-1.5h.011c.828 0 1.5.672 1.5 1.5s-.672 1.5-1.5 1.5z" fill="#773e3e"/><path d="m32.031 22.537c-.829 0-1.505-.672-1.505-1.5s.666-1.5 1.494-1.5h.011c.828 0 1.5.672 1.5 1.5s-.672 1.5-1.5 1.5z" fill="#773e3e"/><path d="m34.03 25.541c-.829 0-1.505-.672-1.505-1.5s.666-1.5 1.494-1.5h.011c.828 0 1.5.672 1.5 1.5s-.672 1.5-1.5 1.5z" fill="#773e3e"/><path d="m36.029 22.541c-.829 0-1.505-.672-1.505-1.5s.666-1.5 1.494-1.5h.011c.828 0 1.5.672 1.5 1.5s-.672 1.5-1.5 1.5z" fill="#773e3e"/><path d="m32.031 17.545c-.829 0-1.505-.672-1.505-1.5s.666-1.5 1.494-1.5h.011c.828 0 1.5.672 1.5 1.5s-.672 1.5-1.5 1.5z" fill="#ed5565"/><path d="m34.03 14.545c-.829 0-1.505-.672-1.505-1.5s.666-1.5 1.494-1.5h.011c.828 0 1.5.672 1.5 1.5s-.672 1.5-1.5 1.5z" fill="#ed5565"/><path d="m32.028 11.541c-.829 0-1.505-.672-1.505-1.5s.666-1.5 1.494-1.5h.011c.828 0 1.5.672 1.5 1.5s-.672 1.5-1.5 1.5z" fill="#ed5565"/><path d="m36.029 17.547c-.829 0-1.505-.672-1.505-1.5s.666-1.5 1.494-1.5h.011c.828 0 1.5.672 1.5 1.5s-.672 1.5-1.5 1.5z" fill="#ed5565"/><path d="m32.006 51.539c-.829 0-1.505-.672-1.505-1.5s.666-1.5 1.494-1.5h.011c.828 0 1.5.672 1.5 1.5s-.672 1.5-1.5 1.5z" fill="#a0d468"/><path d="m32.006 45.537c-.829 0-1.505-.672-1.505-1.5s.666-1.5 1.494-1.5h.011c.828 0 1.5.672 1.5 1.5s-.672 1.5-1.5 1.5z" fill="#a0d468"/><path d="m28.008 40.537c-.829 0-1.505-.672-1.505-1.5s.666-1.5 1.494-1.5h.011c.828 0 1.5.672 1.5 1.5s-.672 1.5-1.5 1.5z" fill="#773e3e"/><path d="m26.009 37.537c-.829 0-1.505-.672-1.505-1.5s.666-1.5 1.494-1.5h.011c.828 0 1.5.672 1.5 1.5s-.672 1.5-1.5 1.5z" fill="#773e3e"/><path d="m24.01 34.537c-.829 0-1.505-.672-1.505-1.5s.666-1.5 1.494-1.5h.011c.828 0 1.5.672 1.5 1.5s-.672 1.5-1.5 1.5z" fill="#773e3e"/><path d="m22.011 31.537c-.829 0-1.505-.672-1.505-1.5s.666-1.5 1.494-1.5h.011c.828 0 1.5.672 1.5 1.5s-.672 1.5-1.5 1.5z" fill="#773e3e"/><path d="m18.01 28.537c-.829 0-1.505-.672-1.505-1.5s.666-1.5 1.494-1.5h.011c.828 0 1.5.672 1.5 1.5s-.672 1.5-1.5 1.5z" fill="#ffce54"/><path d="m30.007 48.539c-.829 0-1.505-.672-1.505-1.5s.666-1.5 1.494-1.5h.011c.828 0 1.5.672 1.5 1.5s-.672 1.5-1.5 1.5z" fill="#a0d468"/><path d="m28.008 45.539c-.829 0-1.505-.672-1.505-1.5s.666-1.5 1.494-1.5h.011c.828 0 1.5.672 1.5 1.5s-.672 1.5-1.5 1.5z" fill="#a0d468"/><path d="m22.008 40.541c-.829 0-1.505-.672-1.505-1.5s.666-1.5 1.494-1.5h.011c.828 0 1.5.672 1.5 1.5s-.672 1.5-1.5 1.5z" fill="#a0d468"/><path d="m20.009 37.541c-.829 0-1.505-.672-1.505-1.5s.666-1.5 1.494-1.5h.011c.828 0 1.5.672 1.5 1.5s-.672 1.5-1.5 1.5z" fill="#a0d468"/><path d="m32.006 40.541c-.829 0-1.505-.672-1.505-1.5s.666-1.5 1.494-1.5h.011c.828 0 1.5.672 1.5 1.5s-.672 1.5-1.5 1.5z" fill="#773e3e"/><path d="m32.006 34.537c-.829 0-1.505-.672-1.505-1.5s.666-1.5 1.494-1.5h.011c.828 0 1.5.672 1.5 1.5s-.672 1.5-1.5 1.5z" fill="#773e3e"/><path d="m30.007 31.537c-.829 0-1.505-.672-1.505-1.5s.666-1.5 1.494-1.5h.011c.828 0 1.5.672 1.5 1.5s-.672 1.5-1.5 1.5z" fill="#773e3e"/><path d="m28.008 28.537c-.829 0-1.505-.672-1.505-1.5s.666-1.5 1.494-1.5h.011c.828 0 1.5.672 1.5 1.5s-.672 1.5-1.5 1.5z" fill="#773e3e"/><path d="m26.009 25.537c-.829 0-1.505-.672-1.505-1.5s.666-1.5 1.494-1.5h.011c.828 0 1.5.672 1.5 1.5s-.672 1.5-1.5 1.5z" fill="#773e3e"/><path d="m22.008 22.537c-.829 0-1.505-.672-1.505-1.5s.666-1.5 1.494-1.5h.011c.828 0 1.5.672 1.5 1.5s-.672 1.5-1.5 1.5z" fill="#ffce54"/><path d="m30.007 37.541c-.829 0-1.505-.672-1.505-1.5s.666-1.5 1.494-1.5h.011c.828 0 1.5.672 1.5 1.5s-.672 1.5-1.5 1.5z" fill="#773e3e"/><path d="m28.008 34.541c-.829 0-1.505-.672-1.505-1.5s.666-1.5 1.494-1.5h.011c.828 0 1.5.672 1.5 1.5s-.672 1.5-1.5 1.5z" fill="#773e3e"/><path d="m26.009 31.541c-.829 0-1.505-.672-1.505-1.5s.666-1.5 1.494-1.5h.011c.828 0 1.5.672 1.5 1.5s-.672 1.5-1.5 1.5z" fill="#773e3e"/><path d="m24.01 28.541c-.829 0-1.505-.672-1.505-1.5s.666-1.5 1.494-1.5h.011c.828 0 1.5.672 1.5 1.5s-.672 1.5-1.5 1.5z" fill="#773e3e"/><path d="m20.009 25.541c-.829 0-1.505-.672-1.505-1.5s.666-1.5 1.494-1.5h.011c.828 0 1.5.672 1.5 1.5s-.672 1.5-1.5 1.5z" fill="#ffce54"/><path d="m32.006 28.541c-.829 0-1.505-.672-1.505-1.5s.666-1.5 1.494-1.5h.011c.828 0 1.5.672 1.5 1.5s-.672 1.5-1.5 1.5z" fill="#773e3e"/><path d="m32.006 22.537c-.829 0-1.505-.672-1.505-1.5s.666-1.5 1.494-1.5h.011c.828 0 1.5.672 1.5 1.5s-.672 1.5-1.5 1.5z" fill="#773e3e"/><path d="m30.007 25.541c-.829 0-1.505-.672-1.505-1.5s.666-1.5 1.494-1.5h.011c.828 0 1.5.672 1.5 1.5s-.672 1.5-1.5 1.5z" fill="#773e3e"/><path d="m28.008 22.541c-.829 0-1.505-.672-1.505-1.5s.666-1.5 1.494-1.5h.011c.828 0 1.5.672 1.5 1.5s-.672 1.5-1.5 1.5z" fill="#773e3e"/><path d="m32.006 17.545c-.829 0-1.505-.672-1.505-1.5s.666-1.5 1.494-1.5h.011c.828 0 1.5.672 1.5 1.5s-.672 1.5-1.5 1.5z" fill="#ed5565"/><path d="m30.007 14.545c-.829 0-1.505-.672-1.505-1.5s.666-1.5 1.494-1.5h.011c.828 0 1.5.672 1.5 1.5s-.672 1.5-1.5 1.5z" fill="#ed5565"/><path d="m32.009 11.541c-.829 0-1.505-.672-1.505-1.5s.666-1.5 1.494-1.5h.011c.828 0 1.5.672 1.5 1.5s-.672 1.5-1.5 1.5z" fill="#ed5565"/><path d="m28.008 17.547c-.829 0-1.505-.672-1.505-1.5s.666-1.5 1.494-1.5h.011c.828 0 1.5.672 1.5 1.5s-.672 1.5-1.5 1.5z" fill="#ed5565"/></svg>