<svg id="icons" enable-background="new 0 0 64 64" height="512" viewBox="0 0 64 64" width="512" xmlns="http://www.w3.org/2000/svg"><path d="m32 0c-16.542 0-30 13.458-30 30v4c0 16.542 13.458 30 30 30s30-13.458 30-30v-4c0-16.542-13.458-30-30-30zm0 62c-10.97 0-20.48-6.344-25.071-15.553 5.368 8.156 14.598 13.553 25.071 13.553s19.703-5.397 25.071-13.553c-4.591 9.209-14.101 15.553-25.071 15.553zm0-4c-15.439 0-28-12.561-28-28s12.561-28 28-28 28 12.561 28 28-12.561 28-28 28z"/><path d="m32 3.5c-14.612 0-26.5 11.888-26.5 26.5s11.888 26.5 26.5 26.5 26.5-11.888 26.5-26.5-11.888-26.5-26.5-26.5zm0 51c-13.51 0-24.5-10.99-24.5-24.5s10.99-24.5 24.5-24.5 24.5 10.99 24.5 24.5-10.99 24.5-24.5 24.5z"/><path d="m32.031 49.039h-.011c-.003 0-.005.002-.007.002-.003 0-.005-.002-.008-.002h-.011c-.552 0-.994.447-.994 1s.452 1 1.005 1c.005 0 .008-.003.013-.003s.008.003.013.003c.552 0 1-.447 1-1s-.448-1-1-1z"/><path d="m32.031 43.037h-.011c-.003 0-.005.002-.007.002-.003 0-.005-.002-.008-.002h-.011c-.552 0-.994.447-.994 1s.452 1 1.005 1c.005 0 .008-.003.013-.003s.008.003.013.003c.552 0 1-.447 1-1s-.448-1-1-1z"/><path d="m36.029 38.037h-.011c-.552 0-.994.447-.994 1s.452 1 1.005 1c.552 0 1-.447 1-1s-.448-1-1-1z"/><path d="m38.028 35.037h-.011c-.552 0-.994.447-.994 1s.452 1 1.005 1c.552 0 1-.447 1-1s-.448-1-1-1z"/><path d="m40.027 32.037h-.011c-.552 0-.994.447-.994 1s.452 1 1.005 1c.552 0 1-.447 1-1s-.448-1-1-1z"/><path d="m42.026 29.037h-.011c-.552 0-.994.447-.994 1s.452 1 1.005 1c.552 0 1-.447 1-1s-.448-1-1-1z"/><path d="m46.027 25.037h-.011c-.552 0-.994.447-.994 1s.452 1 1.005 1c.552 0 1-.447 1-1s-.448-1-1-1z"/><path d="m48.026 24.037c.552 0 1-.447 1-1s-.448-1-1-1h-.011c-.552 0-.994.447-.994 1s.453 1 1.005 1z"/><path d="m34.03 46.039h-.01c-.552 0-.994.447-.994 1s.452 1 1.005 1c.552 0 1-.447 1-1s-.449-1-1.001-1z"/><path d="m36.029 43.039h-.011c-.552 0-.994.447-.994 1s.452 1 1.005 1c.552 0 1-.447 1-1s-.448-1-1-1z"/><path d="m42.029 38.041h-.011c-.552 0-.994.447-.994 1s.452 1 1.005 1c.552 0 1-.447 1-1s-.448-1-1-1z"/><path d="m44.028 35.041h-.011c-.552 0-.994.447-.994 1s.452 1 1.005 1c.552 0 1-.447 1-1s-.448-1-1-1z"/><path d="m46.027 32.041h-.011c-.552 0-.994.447-.994 1s.452 1 1.005 1c.552 0 1-.447 1-1s-.448-1-1-1z"/><path d="m48.029 35.043h-.011c-.552 0-.994.447-.994 1s.452 1 1.005 1c.552 0 1-.447 1-1s-.448-1-1-1z"/><path d="m50.031 38.047h-.011c-.552 0-.994.447-.994 1s.452 1 1.005 1c.552 0 1-.447 1-1s-.448-1-1-1z"/><path d="m46.027 38.047h-.011c-.552 0-.994.447-.994 1s.452 1 1.005 1c.552 0 1-.447 1-1s-.448-1-1-1z"/><path d="m32.031 38.041h-.011c-.003 0-.005.002-.007.002-.003 0-.005-.002-.008-.002h-.011c-.552 0-.994.447-.994 1s.452 1 1.005 1c.005 0 .008-.003.013-.003s.008.003.013.003c.552 0 1-.447 1-1s-.448-1-1-1z"/><path d="m34.03 31.037c.552 0 1-.447 1-1s-.448-1-1-1h-.01c-.552 0-.994.447-.994 1s.452 1 1.004 1z"/><path d="m36.029 28.037c.552 0 1-.447 1-1s-.448-1-1-1h-.011c-.552 0-.994.447-.994 1s.453 1 1.005 1z"/><path d="m38.028 25.037c.552 0 1-.447 1-1s-.448-1-1-1h-.011c-.552 0-.994.447-.994 1s.453 1 1.005 1z"/><path d="m42.029 21.037c.552 0 1-.447 1-1s-.448-1-1-1h-.011c-.552 0-.994.447-.994 1s.453 1 1.005 1z"/><path d="m34.03 37.041c.552 0 1-.447 1-1s-.448-1-1-1h-.01c-.552 0-.994.447-.994 1s.452 1 1.004 1z"/><path d="m36.029 34.041c.552 0 1-.447 1-1s-.448-1-1-1h-.011c-.552 0-.994.447-.994 1s.453 1 1.005 1z"/><path d="m38.028 31.041c.552 0 1-.447 1-1s-.448-1-1-1h-.011c-.552 0-.994.447-.994 1s.453 1 1.005 1z"/><path d="m40.027 28.041c.552 0 1-.447 1-1s-.448-1-1-1h-.011c-.552 0-.994.447-.994 1s.453 1 1.005 1z"/><path d="m44.028 24.039c.552 0 1-.447 1-1s-.448-1-1-1h-.011c-.552 0-.994.447-.994 1s.453 1 1.005 1z"/><path d="m46.027 21.039c.552 0 1-.447 1-1s-.448-1-1-1h-.011c-.552 0-.994.447-.994 1s.453 1 1.005 1z"/><path d="m50.031 21.039c.552 0 1-.447 1-1s-.448-1-1-1h-.011c-.552 0-.994.447-.994 1s.453 1 1.005 1z"/><path d="m16.001 25.037c.552 0 1-.447 1-1s-.448-1-1-1h-.011c-.552 0-.994.447-.994 1s.452 1 1.005 1z"/><path d="m18 32.041h-.011c-.552 0-.994.447-.994 1s.452 1 1.005 1c.552 0 1-.447 1-1s-.448-1-1-1z"/><path d="m15.998 35.043h-.011c-.552 0-.994.447-.994 1s.452 1 1.005 1c.552 0 1-.447 1-1s-.448-1-1-1z"/><path d="m13.996 38.047h-.011c-.552 0-.994.447-.994 1s.452 1 1.005 1c.552 0 1-.447 1-1s-.448-1-1-1z"/><path d="m18 38.047h-.011c-.552 0-.994.447-.994 1s.452 1 1.005 1c.552 0 1-.447 1-1s-.448-1-1-1z"/><path d="m18 22.041c.552 0 1-.447 1-1s-.448-1-1-1h-.011c-.552 0-.994.447-.994 1s.452 1 1.005 1z"/><path d="m13.996 22.041c.552 0 1-.447 1-1s-.448-1-1-1h-.011c-.552 0-.994.447-.994 1s.452 1 1.005 1z"/><path d="m34.03 23.041h-.01c-.552 0-.994.447-.994 1s.452 1 1.005 1c.552 0 1-.447 1-1s-.449-1-1.001-1z"/><path d="m36.029 20.041h-.011c-.552 0-.994.447-.994 1s.452 1 1.005 1c.552 0 1-.447 1-1s-.448-1-1-1z"/><path d="m34.03 14.045c.552 0 1-.447 1-1s-.448-1-1-1h-.01c-.552 0-.994.447-.994 1s.452 1 1.004 1z"/><path d="m36.029 17.047c.552 0 1-.447 1-1s-.448-1-1-1h-.011c-.552 0-.994.447-.994 1s.453 1 1.005 1z"/><path d="m28.008 40.037c.552 0 1-.447 1-1s-.448-1-1-1h-.011c-.552 0-.994.447-.994 1s.452 1 1.005 1z"/><path d="m26.009 35.037h-.011c-.552 0-.994.447-.994 1s.452 1 1.005 1c.552 0 1-.447 1-1s-.448-1-1-1z"/><path d="m24.01 32.037h-.011c-.552 0-.994.447-.994 1s.452 1 1.005 1c.552 0 1-.447 1-1s-.448-1-1-1z"/><path d="m22.011 29.037h-.011c-.552 0-.994.447-.994 1s.452 1 1.005 1c.552 0 1-.447 1-1s-.448-1-1-1z"/><path d="m18.01 26.037h-.01-.001-.01c-.552 0-.994.447-.994 1s.452 1 1.005 1c.002 0 .003-.001.005-.001s.003.001.005.001c.552 0 1-.447 1-1s-.448-1-1-1z"/><path d="m30.007 46.039h-.011c-.552 0-.994.447-.994 1s.452 1 1.005 1c.552 0 1-.447 1-1s-.448-1-1-1z"/><path d="m28.008 43.039h-.011c-.552 0-.994.447-.994 1s.452 1 1.005 1c.552 0 1-.447 1-1s-.448-1-1-1z"/><path d="m22.008 38.041h-.011c-.552 0-.994.447-.994 1s.452 1 1.005 1c.552 0 1-.447 1-1s-.448-1-1-1z"/><path d="m20.009 35.041h-.011c-.552 0-.994.447-.994 1s.452 1 1.005 1c.552 0 1-.447 1-1s-.448-1-1-1z"/><path d="m32.006 34.037c.005 0 .008-.003.013-.003s.008.003.013.003c.552 0 1-.447 1-1s-.448-1-1-1h-.011c-.003 0-.005.002-.007.002-.003 0-.005-.002-.008-.002h-.011c-.552 0-.994.447-.994 1s.452 1 1.005 1z"/><path d="m30.007 29.037h-.011c-.552 0-.994.447-.994 1s.452 1 1.005 1c.552 0 1-.447 1-1s-.448-1-1-1z"/><path d="m28.008 26.037h-.011c-.552 0-.994.447-.994 1s.452 1 1.005 1c.552 0 1-.447 1-1s-.448-1-1-1z"/><path d="m26.009 25.037c.552 0 1-.447 1-1s-.448-1-1-1h-.011c-.552 0-.994.447-.994 1s.452 1 1.005 1z"/><path d="m22.008 22.037c.552 0 1-.447 1-1s-.448-1-1-1h-.011c-.552 0-.994.447-.994 1s.452 1 1.005 1z"/><path d="m30.007 37.041c.552 0 1-.447 1-1s-.448-1-1-1h-.011c-.552 0-.994.447-.994 1s.452 1 1.005 1z"/><path d="m28.008 34.041c.552 0 1-.447 1-1s-.448-1-1-1h-.011c-.552 0-.994.447-.994 1s.452 1 1.005 1z"/><path d="m26.009 29.041h-.011c-.552 0-.994.447-.994 1s.452 1 1.005 1c.552 0 1-.447 1-1s-.448-1-1-1z"/><path d="m24.01 28.041c.552 0 1-.447 1-1s-.448-1-1-1h-.011c-.552 0-.994.447-.994 1s.452 1 1.005 1z"/><path d="m20.009 25.041c.552 0 1-.447 1-1s-.448-1-1-1h-.011c-.552 0-.994.447-.994 1s.452 1 1.005 1z"/><path d="m32.006 28.041c.005 0 .008-.003.013-.003s.008.003.013.003c.552 0 1-.447 1-1s-.448-1-1-1h-.011c-.003 0-.005.002-.007.002-.003 0-.005-.002-.008-.002h-.011c-.552 0-.994.447-.994 1s.452 1 1.005 1z"/><path d="m32.006 22.037c.005 0 .008-.003.013-.003s.008.003.013.003c.552 0 1-.447 1-1s-.448-1-1-1h-.011c-.003 0-.005.002-.007.002-.003 0-.005-.002-.008-.002h-.011c-.552 0-.994.447-.994 1s.452 1 1.005 1z"/><path d="m30.007 23.041h-.011c-.552 0-.994.447-.994 1s.452 1 1.005 1c.552 0 1-.447 1-1s-.448-1-1-1z"/><path d="m28.008 22.041c.552 0 1-.447 1-1s-.448-1-1-1h-.011c-.552 0-.994.447-.994 1s.452 1 1.005 1z"/><path d="m32.006 17.045c.005 0 .008-.003.013-.003s.008.003.013.003c.552 0 1-.447 1-1s-.448-1-1-1h-.011c-.003 0-.005.002-.007.002-.003 0-.005-.002-.008-.002h-.011c-.552 0-.994.447-.994 1s.452 1 1.005 1z"/><path d="m30.007 14.045c.552 0 1-.447 1-1s-.448-1-1-1h-.011c-.552 0-.994.447-.994 1s.452 1 1.005 1z"/><path d="m32.009 11.041c.004 0 .006-.002.01-.002s.006.002.01.002c.552 0 1-.447 1-1s-.448-1-1-1h-.011c-.002 0-.003.001-.004.001-.002 0-.003-.001-.005-.001h-.011c-.552 0-.994.447-.994 1s.452 1 1.005 1z"/><path d="m28.008 17.047c.552 0 1-.447 1-1s-.448-1-1-1h-.011c-.552 0-.994.447-.994 1s.452 1 1.005 1z"/></svg>